# AST/ASF file generated using VICON BodyLanguage
# -----------------------------------------------
:version 1.10
:name VICON
:units
  mass 1.0
  length 0.45
  angle deg
:documentation
   .ast/.asf automatically generated from VICON data using
   VICON BodyBuilder and BodyLanguage model FoxedUp or BRILLIANT.MOD
:root
   order TX TY TZ RX RY RZ
   axis XYZ
   position 0 0 0  
   orientation 0 0 0 
:bonedata
  begin
     id 1 
     name lhipjoint
     direction 0.535335 -0.74333 0.401095 
     length 2.04549 
     axis 0 0 0  XYZ
  end
  begin
     id 2 
     name lfemur
     direction 0.34202 -0.939693 0  
     length 6.95643  
     axis 0 0 20  XYZ
    dof rx ry rz
    limits (-160.0 20.0)
           (-70.0 70.0)
           (-60.0 70.0)
  end
  begin
     id 3 
     name ltibia
     direction 0.34192 -0.939729 0   
     length 5.55969   
     axis 0 0 20   XYZ
    dof rx
    limits (-10.0 170.0)
  end
  begin
     id 4 
     name lfoot
     direction 0.216943 -0.596046 0.773088   
     length 2.27918   
     axis -90 7.62852e-016 20   XYZ
    dof rx rz
    limits (-45.0 90.0)
           (-70.0 20.0)
  end
  begin
     id 5 
     name ltoes
     direction 1.53519e-011 -4.21748e-011 1   
     length 1.05562   
     axis -90 7.62852e-016 20   XYZ
    dof rx
    limits (-90.0 20.0)
  end
  begin
     id 6 
     name rhipjoint
     direction -0.576368 -0.719173 0.38806   
     length 2.1142  
     axis 0 0 0  XYZ 
  end
  begin
     id 7 
     name rfemur
     direction -0.34202 -0.939693 0   
     length 7.07928   
     axis 0 0 -20   XYZ
    dof rx ry rz
    limits (-160.0 20.0)
           (-70.0 70.0)
           (-70.0 60.0)
  end
  begin
     id 8 
     name rtibia
     direction -0.34202 -0.939693 0   
     length 5.79974   
     axis 0 0 -20   XYZ
    dof rx
    limits (-10.0 170.0)
 end
 begin
     id 9 
     name rfoot
     direction -0.189288 -0.520065 0.832888   
     length 2.42173  
     axis -90 -7.62852e-016 -20   XYZ
    dof rx rz
    limits (-45.0 90.0)
           (-20.0 70.0)
  end
  begin
     id 10 
     name rtoes
     direction -1.53574e-011 -4.21658e-011 1   
     length 1.14469   
     axis -90 -7.62852e-016 -20   XYZ
    dof rx
    limits (-90.0 20.0)
  end
  begin
     id 11 
     name lowerback
     direction -0.00135702 0.993803 0.111144   
     length 1.91308   
     axis 0 0 0   XYZ
    dof rx ry rz
    limits (-20.0 45.0)
           (-30.0 30.0)
           (-30.0 30.0)
  end
  begin
     id 12 
     name upperback
     direction -0.0056745 0.999813 0.0184631   
     length 1.9212   
     axis 0 0 0   XYZ
    dof rx ry rz
    limits (-20.0 45.0)
           (-30.0 30.0)
           (-30.0 30.0)
  end
  begin
     id 13 
     name thorax
     direction -0.00733434 0.999426 -0.0330788   
     length 1.94196   
     axis 0 0 0   XYZ
    dof rx ry rz
    limits (-20.0 45.0)
           (-30.0 30.0)
           (-30.0 30.0)
  end
  begin
     id 14 
     name lowerneck
     direction 0.0563074 0.996944 -0.0541571   
     length 2.34257   
     axis 0 0 0   XYZ
    dof rx ry rz
    limits (-20.0 45.0)
           (-30.0 30.0)
           (-30.0 30.0)
  end
  begin
     id 15 
     name upperneck
     direction -0.0544519 0.976166 -0.210085   
     length 2.32506   
     axis 0 0 0   XYZ
    dof rx ry rz
    limits (-20.0 45.0)
           (-30.0 30.0)
           (-30.0 30.0)
  end
  begin
     id 16
     name head
     direction -0.0226035 0.997615 -0.0652205  
     length 2.3648  
     axis 0 0 0   XYZ
    dof rx ry rz
    limits (-20.0 45.0)
           (-30.0 30.0)
           (-30.0 30.0)
  end
  begin
     id 17 
     name lclavicle
     direction 0.92109 0.381297 -0.0787716  
     length 4.0487  
     axis 0 0 0   XYZ
    dof ry rz
    limits (-20.0 10.0)
           (0.0 20.0)
  end
  begin
     id 18 
     name lhumerus
     direction 1 -4.48986e-011 3.56724e-027   
     length 4.94991   
     axis 180 -30 -90   XYZ
    dof rx ry rz
    limits (-60.0 90.0)
           (-90.0 90.0)
           (-90.0 90.0)
  end
  begin
     id 19
     name lradius
     direction 1 -4.48981e-011 8.62147e-027   
     length 2.7606   
     axis 180 -30 -90   XYZ
    dof rx
    limits (-10.0 170.0)
  end
  begin
     id 20
     name lwrist
     direction 1 -4.48989e-011 1.59799e-026   
     length 1.3803   
     axis -1.17785e-014 90 90   XYZ
    dof ry
    limits (-180.0 0.0)
 end
  begin
     id 21 
     name lhand
     direction 1 -4.48896e-011 3.19599e-026   
     length 0.843936   
     axis -2.03931e-014 90 90   XYZ
    dof rx rz
    limits (-90.0 90.0)
           (-45.0 45.0)
  end
  begin
     id 22 
     name lfingers
     direction 1 -4.48887e-011 6.39197e-026   
     length 0.680403   
     axis -4.07862e-014 90 90   XYZ
    dof rx
    limits (0.0 90.0)
  end
  begin
     id 23
     name lthumb
     direction 0.707107 -6.348e-011 0.707107   
     length 0.976926   
     axis -90 45 2.85299e-015   XYZ
    dof rx rz
    limits (-45.0 45.0)
           (-45.0 45.0)
  end
  begin
     id 24 
     name rclavicle
     direction -0.951104 0.307692 -0.026953   
     length 4.21801  
     axis 0 0 0   XYZ 
    dof ry rz
    limits (-10.0 20.0)
           (-20.0 0.0)
  end
  begin
     id 25 
     name rhumerus
     direction -1 -4.4896e-011 -1.8171e-018  
     length 4.32982   
     axis 180 30 90   XYZ
    dof rx ry rz
    limits (-90.0 60.0)
           (-90.0 90.0)
           (-90.0 90.0)
  end
  begin
     id 26 
     name rradius
     direction -1 -4.48959e-011 8.25165e-027   
     length 3.20057   
     axis 180 30 90   XYZ
    dof rx
    limits (-10.0 170.0)
  end
  begin
     id 27 
     name rwrist
     direction -1 -4.48997e-011 1.59799e-026   
     length 1.60029   
     axis -1.17785e-014 -90 -90   XYZ
    dof ry
    limits (-180.0 0.0)
  end
  begin
     id 28
     name rhand
     direction -1 -4.49023e-011 3.19599e-026   
     length 0.960433   
     axis -2.03931e-014 -90 -90   XYZ
    dof rx rz
    limits (-90.0 90.0)
           (-45.0 45.0)
  end
  begin
     id 29
     name rfingers
     direction -1 -4.48802e-011 6.39197e-026   
     length 0.774326   
     axis -4.07862e-014 -90 -90   XYZ
    dof rx
    limits (0.0 90.0)
  end
  begin
     id 30
     name rthumb
     direction -0.707107 -6.34876e-011 0.707107   
     length 1.11178   
     axis -90 -45 -2.85299e-015   XYZ
    dof rx rz
    limits (-45.0 45.0)
           (-45.0 45.0)
  end
:hierarchy
  begin
    root lhipjoint rhipjoint lowerback
    lhipjoint lfemur
    lfemur ltibia
    ltibia lfoot
    lfoot ltoes
    rhipjoint rfemur
    rfemur rtibia
    rtibia rfoot
    rfoot rtoes
    lowerback upperback
    upperback thorax
    thorax lowerneck lclavicle rclavicle
    lowerneck upperneck
    upperneck head
    lclavicle lhumerus
    lhumerus lradius
    lradius lwrist
    lwrist lhand lthumb
    lhand lfingers
    rclavicle rhumerus
    rhumerus rradius
    rradius rwrist
    rwrist rhand rthumb
    rhand rfingers
end

#!OML:ASF C:\KaitlinTest1\Natural Motions\Nikki\Session 2\Nikki.ASF
:FULLY-SPECIFIED
:DEGREES
1060
root -16.7974 16.4388 5.81603 -159.023 84.6377 -170.489
lowerback -6.76336 -0.454162 0.675143
upperback -2.08287 -0.580726 -0.915663
thorax 1.6276 -0.269584 -1.36701
lowerneck 9.67498 -9.8615 -13.7356
upperneck 10.2329 39.2993 7.1002
head 167.794 67.1359 -35.2683
rclavicle 1.79652e-014 -1.07344e-014
rhumerus -34.2728 -19.3209 -81.8562
rradius 17.1444
rwrist 23.319
rhand -34.2504 2.00471
rfingers 7.12502
rthumb -7.42122 -27.8451
lclavicle 1.79652e-014 -1.07344e-014
lhumerus -33.3848 7.50586 85.7097
lradius 25.2025
lwrist -34.7285
lhand -37.3371 2.61923
lfingers 7.12502
lthumb -10.3999 32.342
rfemur -15.0643 -20.8879 22.6777
rtibia 22.7402
rfoot -16.7979 11.0297
rtoes -4.29375e-014
lfemur -31.3707 1.6166 -15.9375
ltibia 39.2047
lfoot -4.85987 -1.55906
ltoes 4.92986e-014
1061
root -16.7948 16.435 5.80903 -161.93 84.6769 -173.533
lowerback -6.88045 -0.495443 0.428339
upperback -2.1696 -0.613975 -0.996881
thorax 1.60428 -0.285099 -1.31525
lowerneck 9.72846 -9.84066 -13.7393
upperneck 10.2238 39.2622 7.10631
head 168.046 67.0002 -35.0264
rclavicle -1.963e-015 9.54166e-015
rhumerus -34.5613 -19.6191 -81.5418
rradius 16.9132
rwrist 23.8157
rhand -34.1005 1.83555
rfingers 7.12502
rthumb -7.27659 -28.0193
lclavicle -1.963e-015 9.54166e-015
lhumerus -33.1565 7.50301 85.8404
lradius 25.2815
lwrist -35.2055
lhand -37.2584 2.88582
lfingers 7.12502
lthumb -10.3239 32.6124
rfemur -15.282 -21.2333 22.3522
rtibia 22.9419
rfoot -16.9151 11.3188
rtoes -1.55052e-013
lfemur -31.4057 1.15422 -16.2538
ltibia 38.3399
lfoot -5.03071 -1.80634
ltoes 0
1062
root -16.7843 16.4336 5.8023 -163.028 84.6542 -174.633
lowerback -6.93802 -0.523915 0.343691
upperback -2.22718 -0.643741 -1.01648
thorax 1.57696 -0.299339 -1.2905
lowerneck 9.8355 -9.80352 -13.7644
upperneck 10.2218 39.2169 7.1183
head 168.417 66.8112 -34.6727
rclavicle -1.53561e-014 0
rhumerus -34.87 -19.8934 -81.2498
rradius 16.7085
rwrist 24.0921
rhand -34.0565 1.75328
rfingers 7.12502
rthumb -7.23407 -28.1031
lclavicle -1.53561e-014 0
lhumerus -32.9432 7.21943 86.0864
lradius 25.3025
lwrist -35.4411
lhand -37.2114 2.93525
lfingers 7.12502
lthumb -10.2786 32.6641
rfemur -15.3098 -21.3471 22.2067
rtibia 23.1321
rfoot -17.1012 11.365
rtoes -5.725e-014
lfemur -31.2658 0.734495 -16.322
ltibia 37.417
lfoot -5.18186 -2.05408
ltoes 1.38354e-013
1063
root -16.767 16.4368 5.79284 -164.143 84.6162 -175.709
lowerback -7.06886 -0.541175 0.295226
upperback -2.24251 -0.660719 -1.05379
thorax 1.63351 -0.306938 -1.30446
lowerneck 9.9253 -9.81226 -13.7488
upperneck 10.2235 39.155 7.11744
head 168.53 66.6856 -34.5244
rclavicle -2.85753e-015 -2.38542e-015
rhumerus -35.1891 -20.313 -80.8843
rradius 16.4879
rwrist 24.6452
rhand -34.0134 1.79249
rfingers 7.12502
rthumb -7.19247 -28.0653
lclavicle -2.85753e-015 -2.38542e-015
lhumerus -32.696 6.92725 86.3473
lradius 25.2167
lwrist -35.3721
lhand -37.252 2.88807
lfingers 7.12502
lthumb -10.3177 32.615
rfemur -15.2053 -21.6375 22.0286
rtibia 23.201
rfoot -17.2223 11.5779
rtoes 1.24837e-013
lfemur -31.0715 0.292208 -16.4194
ltibia 36.5072
lfoot -5.35903 -2.31086
ltoes 3.81667e-014
1064
root -16.7531 16.4382 5.78251 -165.855 84.5435 -177.441
lowerback -7.16986 -0.577944 0.198872
upperback -2.2883 -0.698705 -1.1219
thorax 1.6418 -0.324919 -1.32449
lowerneck 10.0196 -9.81515 -13.718
upperneck 10.2258 39.0957 7.13264
head 168.723 66.5575 -34.3225
rclavicle -6.65929e-015 7.95139e-015
rhumerus -35.4988 -20.7163 -80.5426
rradius 16.243
rwrist 25.2091
rhand -34.04 1.89148
rfingers 7.12502
rthumb -7.21814 -27.9654
lclavicle -6.65929e-015 7.95139e-015
lhumerus -32.5109 6.64595 86.5878
lradius 25.2146
lwrist -35.1253
lhand -37.4767 2.86142
lfingers 7.12502
lthumb -10.5345 32.5774
rfemur -15.1107 -21.7889 21.8025
rtibia 23.1333
rfoot -17.2494 11.6268
rtoes -8.0309e-014
lfemur -30.9414 -0.118879 -16.5869
ltibia 35.5679
lfoot -5.44015 -2.56661
ltoes 6.99722e-014
1065
root -16.735 16.4367 5.77214 -166.281 84.4466 -177.876
lowerback -7.30845 -0.604153 0.187638
upperback -2.34606 -0.729874 -1.12375
thorax 1.65854 -0.339433 -1.324
lowerneck 10.1442 -9.80886 -13.7339
upperneck 10.2396 39.0406 7.1322
head 168.826 66.488 -34.1905
rclavicle -2.20403e-014 5.96354e-015
rhumerus -35.8767 -21.0086 -80.1512
rradius 16.1068
rwrist 25.8343
rhand -33.9827 1.83793
rfingers 7.12502
rthumb -7.16285 -28.0209
lclavicle -2.20403e-014 5.96354e-015
lhumerus -32.2971 6.89285 86.5881
lradius 25.08
lwrist -36.0159
lhand -37.275 2.82452
lfingers 7.12502
lthumb -10.34 32.5503
rfemur -14.9599 -21.8668 21.6993
rtibia 23.0106
rfoot -17.2732 11.5653
rtoes -9.54166e-015
lfemur -30.7572 -0.545661 -16.6182
ltibia 34.5997
lfoot -5.69133 -2.85898
ltoes 3.33958e-014
1066
root -16.7142 16.4366 5.76184 -166.204 84.2514 -177.764
lowerback -7.44885 -0.649617 0.221648
upperback -2.36561 -0.791181 -1.1089
thorax 1.7145 -0.369201 -1.33479
lowerneck 10.2619 -9.79704 -13.7516
upperneck 10.2442 38.9804 7.13647
head 169.034 66.3799 -33.9757
rclavicle 1.62755e-014 -1.98785e-015
rhumerus -36.1462 -21.2864 -79.8495
rradius 15.9184
rwrist 26.2437
rhand -34.1321 1.85269
rfingers 7.12502
rthumb -7.3071 -28.0011
lclavicle 1.62755e-014 -1.98785e-015
lhumerus -32.1986 6.06953 87.0641
lradius 25.2804
lwrist -35.1195
lhand -37.2351 2.86456
lfingers 7.12502
lthumb -10.3015 32.5923
rfemur -14.7057 -21.7319 21.6383
rtibia 22.8947
rfoot -17.3621 11.2273
rtoes 2.78299e-014
lfemur -30.563 -0.866659 -16.6149
ltibia 33.6348
lfoot -5.75743 -3.23733
ltoes -7.95139e-015
1067
root -16.6912 16.4397 5.74785 -167.138 84.0829 -178.733
lowerback -7.70317 -0.723389 0.189078
upperback -2.4011 -0.882664 -1.12003
thorax 1.81695 -0.413177 -1.33942
lowerneck 10.3731 -9.73253 -13.8204
upperneck 10.2971 39.0828 7.18357
head 169.366 66.1615 -33.6957
rclavicle 3.67752e-015 -3.57812e-015
rhumerus -36.4411 -21.6976 -79.4354
rradius 15.6942
rwrist 26.8196
rhand -34.2294 1.89313
rfingers 7.12502
rthumb -7.40099 -27.9574
lclavicle 3.67752e-015 -3.57812e-015
lhumerus -31.9989 5.86293 87.2875
lradius 25.1185
lwrist -35.019
lhand -37.1937 2.85207
lfingers 7.12502
lthumb -10.2615 32.5818
rfemur -14.5248 -21.6254 21.462
rtibia 22.7605
rfoot -17.3891 10.9122
rtoes -2.46493e-014
lfemur -30.409 -1.30815 -16.7329
ltibia 32.6632
lfoot -6.09861 -3.52608
ltoes 7.95139e-015
1068
root -16.6645 16.4379 5.73391 -167.41 83.9593 -179.051
lowerback -7.9858 -0.810087 0.140049
upperback -2.4527 -0.991386 -1.05906
thorax 1.9196 -0.465604 -1.263
lowerneck 10.4988 -9.64969 -13.9508
upperneck 10.3142 39.0705 7.15063
head 169.454 66.1447 -33.5695
rclavicle 1.0635e-014 7.15625e-015
rhumerus -36.728 -22.0389 -78.9301
rradius 15.4505
rwrist 27.4952
rhand -34.2704 2.00932
rfingers 7.12502
rthumb -7.44056 -27.8398
lclavicle 1.0635e-014 7.15625e-015
lhumerus -31.8523 5.90662 87.4676
lradius 24.9918
lwrist -35.0688
lhand -37.1734 2.75873
lfingers 7.12502
lthumb -10.2419 32.4894
rfemur -14.3284 -21.4253 21.3389
rtibia 22.603
rfoot -17.4477 10.5496
rtoes -5.80451e-014
lfemur -30.2487 -1.60071 -16.829
ltibia 31.6905
lfoot -6.22333 -3.81664
ltoes -1.59028e-014
